<?xml version="1.0" encoding="UTF-8" standalone="no"?>
<!-- Created with Inkscape (http://www.inkscape.org/) -->
<svg
   xmlns:dc="http://purl.org/dc/elements/1.1/"
   xmlns:cc="http://creativecommons.org/ns#"
   xmlns:rdf="http://www.w3.org/1999/02/22-rdf-syntax-ns#"
   xmlns:svg="http://www.w3.org/2000/svg"
   xmlns="http://www.w3.org/2000/svg"
   xmlns:sodipodi="http://sodipodi.sourceforge.net/DTD/sodipodi-0.dtd"
   xmlns:inkscape="http://www.inkscape.org/namespaces/inkscape"
   width="389.72681"
   height="223.15239"
   id="svg3974"
   sodipodi:version="0.32"
   inkscape:version="0.46"
   version="1.0"
   sodipodi:docname="Webby Awards.svg"
   inkscape:output_extension="org.inkscape.output.svg.inkscape">
  <defs
     id="defs3976">
    <inkscape:perspective
       sodipodi:type="inkscape:persp3d"
       inkscape:vp_x="0 : 526.18109 : 1"
       inkscape:vp_y="0 : 1000 : 0"
       inkscape:vp_z="744.09448 : 526.18109 : 1"
       inkscape:persp3d-origin="372.04724 : 350.78739 : 1"
       id="perspective3982" />
    <inkscape:perspective
       id="perspective3991"
       inkscape:persp3d-origin="372.04724 : 350.78739 : 1"
       inkscape:vp_z="744.09448 : 526.18109 : 1"
       inkscape:vp_y="0 : 1000 : 0"
       inkscape:vp_x="0 : 526.18109 : 1"
       sodipodi:type="inkscape:persp3d" />
  </defs>
  <sodipodi:namedview
     id="base"
     pagecolor="#ffffff"
     bordercolor="#666666"
     borderopacity="1.0"
     gridtolerance="10000"
     guidetolerance="10"
     objecttolerance="10"
     inkscape:pageopacity="0.0"
     inkscape:pageshadow="2"
     inkscape:zoom="0.48272354"
     inkscape:cx="372.04724"
     inkscape:cy="526.18109"
     inkscape:document-units="px"
     inkscape:current-layer="layer1"
     showgrid="false"
     inkscape:window-width="1024"
     inkscape:window-height="721"
     inkscape:window-x="-4"
     inkscape:window-y="-4" />
  <metadata
     id="metadata3979">
    <rdf:RDF>
      <cc:Work
         rdf:about="">
        <dc:format>image/svg+xml</dc:format>
        <dc:type
           rdf:resource="http://purl.org/dc/dcmitype/StillImage" />
      </cc:Work>
    </rdf:RDF>
  </metadata>
  <g
     inkscape:label="Layer 1"
     inkscape:groupmode="layer"
     id="layer1"
     transform="translate(-73.262092,-198.57703)">
    <rect
       style="fill:#000000;fill-opacity:1;stroke:#ff0000;stroke-width:0;stroke-miterlimit:4;stroke-dasharray:none"
       id="rect3997"
       width="111.24723"
       height="209.31351"
       x="83.898277"
       y="205.25246" />
    <path
       style="fill:#ffffff;fill-rule:evenodd;stroke:#ff0000;stroke-width:0;stroke-linecap:butt;stroke-linejoin:miter;stroke-miterlimit:4;stroke-dasharray:none;stroke-opacity:1"
       d="M 122.38667,245.32256 L 129.768,236.3595 C 180.43798,244.13557 177.22552,256.87116 140.84,263.24865 C 153.03285,267.53592 196.248,275.48185 144.00342,291.19226 C 152.5055,293.50244 200.45,305.37017 140.84,315.97246 C 150.28483,320.23706 200.39618,326.35436 142.94895,341.80712 C 157.82386,344.25153 196.04838,352.39865 145.58513,368.69627 C 164.66331,370.69161 166.82112,371.35375 171.94705,380.2955 L 172.47429,416.1477 L 81.262092,417.72941 L 82.843806,362.89665 L 84.952759,363.42389 C 181.59875,354.50371 153.23376,351.28161 82.843806,347.07951 L 83.371044,336.53474 C 210.3866,329.00727 116.29366,325.10453 83.898283,320.19036 L 83.898283,311.75455 C 107.64001,307.08484 216.01063,305.18985 83.898283,295.41017 L 83.898283,284.86541 C 158.35509,280.86119 183.35063,275.6699 82.843806,267.46655 L 82.316568,257.97627 C 163.04332,255.30709 163.70069,250.79726 122.38667,245.32256 z"
       id="path3999"
       sodipodi:nodetypes="ccccccccccccccccccccc" />
    <rect
       style="fill:#000000;fill-opacity:1;stroke:#ff0000;stroke-width:0;stroke-miterlimit:4;stroke-dasharray:none"
       id="rect4510"
       width="29.525331"
       height="3.1634285"
       x="209.90819"
       y="259.55798" />
    <rect
       style="fill:#000000;fill-opacity:1;stroke:#ff0000;stroke-width:0;stroke-miterlimit:4;stroke-dasharray:none"
       id="rect4512"
       width="3.4495008"
       height="35.509567"
       x="221.94652"
       y="261.23782" />
    <rect
       style="fill:#000000;fill-opacity:1;stroke:#ff0000;stroke-width:0;stroke-miterlimit:4;stroke-dasharray:none"
       id="rect4514"
       width="3.2465889"
       height="37.7416"
       x="244.67264"
       y="259.20868" />
    <rect
       style="fill:#000000;fill-opacity:1;stroke:#ff0000;stroke-width:0;stroke-miterlimit:4;stroke-dasharray:none"
       id="rect4516"
       width="27.190184"
       height="2.6378536"
       x="246.90465"
       y="276.86206" />
    <rect
       style="fill:#000000;fill-opacity:1;stroke:#ff0000;stroke-width:0;stroke-miterlimit:4;stroke-dasharray:none"
       id="rect4518"
       width="2.8407655"
       height="38.147423"
       x="271.25412"
       y="259.41159" />
    <rect
       style="fill:#000000;fill-opacity:1;stroke:#ff0000;stroke-width:0;stroke-miterlimit:4;stroke-dasharray:none"
       id="rect4522"
       width="25.061274"
       height="3.1634285"
       x="283.88449"
       y="259.25031" />
    <rect
       style="fill:#000000;fill-opacity:1;stroke:#ff0000;stroke-width:0;stroke-miterlimit:4;stroke-dasharray:none"
       id="rect4524"
       width="25.061274"
       height="3.1634285"
       x="283.27579"
       y="276.49777" />
    <rect
       style="fill:#000000;fill-opacity:1;stroke:#ff0000;stroke-width:0;stroke-miterlimit:4;stroke-dasharray:none"
       id="rect4526"
       width="25.061274"
       height="3.1634285"
       x="285.10199"
       y="294.15112" />
    <rect
       style="fill:#000000;fill-opacity:1;stroke:#ff0000;stroke-width:0;stroke-miterlimit:4;stroke-dasharray:none"
       id="rect4528"
       width="2.8407655"
       height="38.147423"
       x="283.4288"
       y="259.41159" />
    <path
       style="fill:none;fill-rule:evenodd;stroke:#000000;stroke-width:2.24533963;stroke-linecap:butt;stroke-linejoin:miter;stroke-miterlimit:4;stroke-dasharray:none;stroke-opacity:1"
       d="M 214.6551,411.4332 L 231.79088,375.8248 L 231.79088,375.8248 L 248.80513,411.06861 L 248.80513,410.94707 L 231.79088,376.1894 L 214.6551,411.4332 z"
       id="path4530" />
    <path
       style="fill:none;fill-rule:evenodd;stroke:#000000;stroke-width:2.24533963;stroke-linecap:butt;stroke-linejoin:miter;stroke-miterlimit:4;stroke-dasharray:none;stroke-opacity:1"
       d="M 219.27325,400.13088 L 242.85013,400.61699 L 219.27325,400.13088 z"
       id="path4532" />
    <path
       style="fill:none;fill-rule:evenodd;stroke:#000000;stroke-width:2.24533963;stroke-linecap:butt;stroke-linejoin:miter;stroke-miterlimit:4;stroke-dasharray:none;stroke-opacity:1"
       d="M 251.1142,375.09563 L 264.7256,410.46096 L 276.39251,375.70328 L 288.42401,410.2179 L 301.06318,375.09563 L 288.54554,410.33942 L 276.27099,375.58175 L 264.60406,410.58249 L 251.1142,375.09563 z"
       id="path4534" />
    <path
       style="fill:none;fill-rule:evenodd;stroke:#000000;stroke-width:2.24533963;stroke-linecap:butt;stroke-linejoin:miter;stroke-miterlimit:4;stroke-dasharray:none;stroke-opacity:1"
       d="M 304.28638,411.37244 L 321.42217,375.76404 L 321.42217,375.76404 L 338.43641,411.00784 L 338.43641,410.88632 L 321.42217,376.12864 L 304.28638,411.37244 z"
       id="path4536" />
    <path
       style="fill:none;fill-rule:evenodd;stroke:#000000;stroke-width:2.24533963;stroke-linecap:butt;stroke-linejoin:miter;stroke-miterlimit:4;stroke-dasharray:none;stroke-opacity:1"
       d="M 308.90454,400.07012 L 332.48142,400.55623 L 308.90454,400.07012 z"
       id="path4538" />
    <path
       style="fill:none;fill-rule:evenodd;stroke:#000000;stroke-width:2.24533963;stroke-linecap:butt;stroke-linejoin:miter;stroke-miterlimit:4;stroke-dasharray:none;stroke-opacity:1"
       d="M 345.90787,411.55473 L 345.66481,375.09563 L 345.90787,411.55473 z"
       id="path4540" />
    <path
       style="fill:none;fill-rule:evenodd;stroke:#000000;stroke-width:2.24533963;stroke-linecap:butt;stroke-linejoin:miter;stroke-miterlimit:4;stroke-dasharray:none;stroke-opacity:1"
       d="M 345.42174,375.46022 L 364.74507,375.46022 C 373.81643,377.95279 374.7658,392.42925 362.436,395.51273 L 346.15093,395.75579 L 362.436,395.63425 C 377.21361,392.98228 371.01048,375.29239 364.62354,375.33869 L 345.42174,375.46022 z"
       id="path4542"
       sodipodi:nodetypes="ccccccc" />
    <path
       style="fill:none;fill-rule:evenodd;stroke:#000000;stroke-width:2.24533963;stroke-linecap:butt;stroke-linejoin:miter;stroke-miterlimit:4;stroke-dasharray:none;stroke-opacity:1"
       d="M 360.97763,396.12038 L 372.8876,411.31167"
       id="path4544" />
    <path
       style="fill:none;fill-rule:evenodd;stroke:#000000;stroke-width:2.24533963;stroke-linecap:butt;stroke-linejoin:miter;stroke-miterlimit:4;stroke-dasharray:none;stroke-opacity:1"
       d="M 382.73156,375.70328 L 382.73156,411.31167 C 396.98899,410.39649 414.317,413.28951 413.11415,393.20364 C 410.19456,372.27857 395.56909,375.86268 382.73156,375.70328 z"
       id="path4550"
       sodipodi:nodetypes="cccc" />
    <path
       style="fill:none;fill-rule:evenodd;stroke:#000000;stroke-width:2.24533963;stroke-linecap:butt;stroke-linejoin:miter;stroke-miterlimit:4;stroke-dasharray:none;stroke-opacity:1"
       d="M 442.88908,378.25541 C 439.73465,373.30992 422.17051,370.99031 421.86433,385.66877 C 421.61584,391.7236 445.38965,392.70732 445.56275,402.07537 C 441.19694,416.2132 424.84678,409.86509 421.01363,405.35668 C 426.25061,412.20653 444.85963,413.70695 445.68428,402.07537 C 442.87994,390.02566 422.00251,394.28131 421.62128,385.54723 C 421.67535,371.35473 436.55938,373.14717 442.88908,378.25541 z"
       id="path4552"
       sodipodi:nodetypes="ccccccc" />
    <rect
       style="fill:#000000;fill-opacity:1;stroke:#ff0000;stroke-width:0;stroke-miterlimit:4;stroke-dasharray:none"
       id="rect4554"
       width="12.15123"
       height="45.977272"
       x="140.02855"
       y="323.9989"
       transform="matrix(1,0,0.2325732,0.9725789,0,0)" />
    <rect
       style="fill:#000000;fill-opacity:1;stroke:#ff0000;stroke-width:0;stroke-miterlimit:4;stroke-dasharray:none"
       id="rect4556"
       width="12.15123"
       height="46.46793"
       x="354.11096"
       y="326.95148"
       transform="matrix(1,0,-0.2719571,0.9623094,0,0)" />
    <rect
       style="fill:#000000;fill-opacity:1;stroke:#ff0000;stroke-width:0;stroke-miterlimit:4;stroke-dasharray:none"
       id="rect4558"
       width="9.824398"
       height="45.544605"
       x="180.79861"
       y="320.21811"
       transform="matrix(1,0,0.1898242,0.9818181,0,0)" />
    <rect
       style="fill:#000000;fill-opacity:1;stroke:#ff0000;stroke-width:0;stroke-miterlimit:4;stroke-dasharray:none"
       id="rect4560"
       width="9.824398"
       height="45.58432"
       x="302.4725"
       y="320.88785"
       transform="matrix(1,0,-0.1941962,0.9809627,0,0)" />
    <rect
       style="fill:#000000;fill-opacity:1;stroke:#ff0000;stroke-width:0;stroke-miterlimit:4;stroke-dasharray:none"
       id="rect4564"
       width="36.453682"
       height="23.81641"
       x="327.8786"
       y="314.62848"
       ry="11.908205" />
    <rect
       style="fill:#ffffff;fill-opacity:1;stroke:#ff0000;stroke-width:0;stroke-miterlimit:4;stroke-dasharray:none"
       id="rect4568"
       width="22.358263"
       height="10.693081"
       x="329.96805"
       y="322.40524"
       ry="5.3465409" />
    <rect
       style="fill:#000000;fill-opacity:1;stroke:#ff0000;stroke-width:0;stroke-miterlimit:4;stroke-dasharray:none"
       id="rect4566"
       width="36.453682"
       height="24.788507"
       x="328.6077"
       y="335.28555"
       ry="12.394254" />
    <rect
       style="fill:#ffffff;fill-opacity:1;stroke:#ff0000;stroke-width:0;stroke-miterlimit:4;stroke-dasharray:none"
       id="rect4570"
       width="22.358263"
       height="10.693081"
       x="332.25308"
       y="340.51855"
       ry="5.3465409" />
    <rect
       style="fill:#000000;fill-opacity:1;stroke:#ff0000;stroke-width:0;stroke-miterlimit:4;stroke-dasharray:none"
       id="rect4562"
       width="11.179132"
       height="44.716526"
       x="327.39258"
       y="315.11453" />
    <rect
       style="fill:#000000;fill-opacity:1;stroke:#ff0000;stroke-width:0;stroke-miterlimit:4;stroke-dasharray:none"
       id="rect4572"
       width="36.453682"
       height="23.81641"
       x="372.42084"
       y="315.02206"
       ry="11.908205" />
    <rect
       style="fill:#ffffff;fill-opacity:1;stroke:#ff0000;stroke-width:0;stroke-miterlimit:4;stroke-dasharray:none"
       id="rect4574"
       width="22.358263"
       height="10.693081"
       x="374.51028"
       y="322.79883"
       ry="5.3465409" />
    <rect
       style="fill:#000000;fill-opacity:1;stroke:#ff0000;stroke-width:0;stroke-miterlimit:4;stroke-dasharray:none"
       id="rect4576"
       width="36.453682"
       height="24.788507"
       x="373.14996"
       y="335.67917"
       ry="12.394254" />
    <rect
       style="fill:#ffffff;fill-opacity:1;stroke:#ff0000;stroke-width:0;stroke-miterlimit:4;stroke-dasharray:none"
       id="rect4578"
       width="22.358263"
       height="10.693081"
       x="376.79532"
       y="340.91211"
       ry="5.3465409" />
    <rect
       style="fill:#000000;fill-opacity:1;stroke:#ff0000;stroke-width:0;stroke-miterlimit:4;stroke-dasharray:none"
       id="rect4580"
       width="11.179132"
       height="44.716526"
       x="371.93484"
       y="315.50812" />
    <rect
       style="fill:#000000;fill-opacity:1;stroke:#ff0000;stroke-width:0;stroke-miterlimit:4;stroke-dasharray:none"
       id="rect4582"
       width="11.216518"
       height="28.693081"
       x="197.58145"
       y="379.05212"
       transform="matrix(1,0,0.5577036,0.8300402,0,0)" />
    <rect
       style="fill:#000000;fill-opacity:1;stroke:#ff0000;stroke-width:0;stroke-miterlimit:4;stroke-dasharray:none"
       id="rect4584"
       width="11.216518"
       height="28.734848"
       x="654.00684"
       y="380.48358"
       transform="matrix(1,0,-0.5594952,0.8288336,0,0)" />
    <rect
       style="fill:#000000;fill-opacity:1;stroke:#ff0000;stroke-width:0;stroke-miterlimit:4;stroke-dasharray:none"
       id="rect4586"
       width="10.207032"
       height="21.872211"
       x="426.06055"
       y="337.47281" />
    <path
       sodipodi:type="arc"
       style="fill:#000000;fill-opacity:1;stroke:#ff0000;stroke-width:0;stroke-miterlimit:4;stroke-dasharray:none"
       id="path4588"
       sodipodi:cx="464.11215"
       sodipodi:cy="433.25739"
       sodipodi:rx="37.232876"
       sodipodi:ry="39.830521"
       d="M 501.34503,433.25739 A 37.232876,39.830521 0 1 1 426.87928,433.25739 A 37.232876,39.830521 0 1 1 501.34503,433.25739 z"
       transform="matrix(0.607025,0,0,0.5918423,18.20314,79.351584)" />
    <rect
       style="fill:#ffffff;fill-opacity:1;stroke:#ff0000;stroke-width:0;stroke-miterlimit:4;stroke-dasharray:none"
       id="rect4590"
       width="34.509491"
       height="8.7488842"
       x="289.9668"
       y="335.52859" />
    <path
       sodipodi:type="arc"
       style="fill:#ffffff;fill-opacity:1;stroke:#ff0000;stroke-width:0;stroke-miterlimit:4;stroke-dasharray:none"
       id="path4592"
       sodipodi:cx="464.11215"
       sodipodi:cy="433.25739"
       sodipodi:rx="37.232876"
       sodipodi:ry="39.830521"
       d="M 501.34503,433.25739 A 37.232876,39.830521 0 1 1 426.87928,433.25739 A 37.232876,39.830521 0 1 1 501.34503,433.25739 z"
       transform="matrix(0.3372361,0,0,0.3216534,143.41543,196.41289)" />
    <rect
       style="fill:#000000;fill-opacity:1;stroke:#ff0000;stroke-width:0;stroke-miterlimit:4;stroke-dasharray:none"
       id="rect4594"
       width="42.189072"
       height="6.6620436"
       x="280.34302"
       y="331.15942" />
  </g>
</svg>
