<?xml version="1.0" encoding="UTF-8"?>
<svg width="1920" height="1080" version="1.1" xmlns="http://www.w3.org/2000/svg">
 <title>The Clio Awards</title>
 <desc>Advertising industry award</desc>
 <path transform="translate(521,332)" d="m0 0c1.8149 0.29802 1.8149 0.29802 3.6665 0.60205 54.534 9.1518 106.71 30.444 148.33 67.398 0.99 0.86754 1.98 1.7351 3 2.6289 5.4303 4.8327 10.35 9.7949 15 15.371 0.83145 0.94359 1.6629 1.8872 2.5195 2.8594 30.076 34.289 45.858 77.806 43.356 123.41-3.3536 48.943-30.536 91.808-66.477 123.83-61.832 53.564-147.63 73.67-227.84 68.148-66.965-5.2251-133.91-28.833-183.05-75.807-1.0233-0.97763-2.0514-1.9502-3.084-2.918-32.039-30.111-54.052-73.155-55.747-117.4-1.1673-50.274 18.468-93.235 52.613-129.29 0.89332-0.93457 1.7866-1.8691 2.707-2.832 0.63551-0.67676 1.271-1.3535 1.9258-2.0508 4.9462-5.1351 10.497-9.5228 16.074-13.949 0.9668-0.78375 1.9336-1.5675 2.9297-2.375 43.934-34.879 99.734-53.752 155.07-59.625 0.80623-0.094263 1.6125-0.18853 2.4431-0.28564 28.136-2.8678 58.676-2.4586 86.557 2.2856zm2 18c3.0082 1.5695 6.0538 2.8315 9.2266 4.0312 39.346 15.12 69.746 39.027 94.773 72.969 7.63-2.2866 14.482-5.5639 21.562-9.1875 1.1041-0.55881 2.2082-1.1176 3.3457-1.6934 2.7001-1.3676 5.3972-2.7407 8.0918-4.1191-31.355-31.969-89.916-61.236-134.78-62.051-0.73162 0.016677-1.4632 0.033354-2.217 0.050537zm-222.31 43.156c-12.616 8.1177-12.616 8.1177-22.694 18.844 3.31 1.7548 6.6234 3.5029 9.9375 5.25 0.92619 0.49113 1.8524 0.98227 2.8066 1.4883 4.3643 2.297 8.7444 4.5626 13.197 6.6836 1.0336 0.49645 1.0336 0.49645 2.0881 1.0029 2.4433 0.71322 3.6287 0.55062 5.9705-0.4248 1.4331-1.3652 1.4331-1.3652 2.5938-3.1406 0.46664-0.65202 0.93328-1.304 1.4141-1.9758 0.49242-0.70407 0.98484-1.4081 1.4922-2.1335 24.056-33.162 57.888-54.992 96.5-67.75-29.679-9.7535-90.381 26.826-113.31 42.156zm56.306 6.844c-0.97453 0.85336-1.9491 1.7067-2.9531 2.5859-9.815 8.7207-19.813 18.403-27.047 29.414v2c8.8118 3.5616 17.641 6.5155 26.812 9 1.8929 0.51482 1.8929 0.51482 3.824 1.04 20.873 5.6158 41.914 9.3504 63.364 11.96 1.4519 0.18007 1.4519 0.18007 2.9331 0.36377 61.693 7.2663 129.14 0.22252 187.07-22.364-3.7433-6.0774-7.944-11.375-12.797-16.605-1.8771-2.0401-3.6341-4.1271-5.3906-6.2695-26.887-30.57-70.397-49.149-110.51-51.996-45.166-2.5241-91.036 10.554-125.31 40.871zm-92 23c-24.583 23.554-44.085 58.67-47 93v8h61l4-29c3.9187-17.189 8.8937-33.701 17.261-49.276 0.93567-1.8713 0.93567-1.8713 0.73877-4.7244-1.0496-0.49814-1.0496-0.49814-2.1204-1.0063-3.2323-1.5363-6.4622-3.0775-9.6921-4.6187-1.1002-0.52207-2.2004-1.0441-3.334-1.582-7.0788-3.3828-14.009-6.9582-20.854-10.793zm403.09 2.1602c-10.482 5.9064-20.953 11.282-32.09 15.84 1.385 4.481 3.1765 8.5469 5.25 12.75 9.7959 20.607 14.622 42.921 16.391 65.586-0.051503 3.4648-0.051503 3.4648 1.3594 4.6641 1.9024 0.093913 3.8084 0.11744 5.7131 0.11353 1.8318-1.133e-4 1.8318-1.133e-4 3.7006-2.2888e-4 1.3426-0.0051074 2.6851-0.010323 4.0277-0.01564 1.3662-0.0018643 2.7324-0.0032881 4.0986-0.0042877 3.602-0.0038246 7.2039-0.013654 10.806-0.024704 3.6731-0.010215 7.3462-0.014794 11.019-0.019836 7.2116-0.010736 14.423-0.027812 21.635-0.048828-0.14261-2.0565-0.28973-4.1127-0.43872-6.1687-0.12216-1.7176-0.12216-1.7176-0.24678-3.4699-0.43712-4.672-1.3675-9.1279-2.502-13.674-0.22212-0.90025-0.44424-1.8005-0.6731-2.728-7.3239-28.72-22.961-53.467-43.139-74.959-1.828 0-3.3585 1.2763-4.9102 2.1602zm-351.09 22.84c-12.269 24.003-21 48.775-21 76h346c-0.7196-12.348-0.7196-12.348-2.5625-24.438-0.16927-0.82218-0.33854-1.6444-0.51294-2.4915-3.8136-17.424-9.9013-33.698-18.925-49.071-0.78721 0.26627-1.5744 0.53254-2.3855 0.80688-44.705 15.022-90.348 24.122-137.61 25.193-0.83354 0.021914-1.6671 0.043828-2.5259 0.066406-52.652 1.2219-106.82-6.5267-156.17-25.254-2.2151-0.92316-2.2151-0.92316-4.3086-0.8125zm-99 93c0 30.503 13.463 60.265 32 84 0.78504 1.0184 1.5701 2.0367 2.3789 3.0859 4.1647 5.2569 8.456 9.6584 13.621 13.914 0.84184-0.43868 1.6837-0.87737 2.551-1.3293 3.1505-1.6402 6.3021-3.2781 9.4546-4.9146 1.3592-0.70613 2.7179-1.4131 4.0762-2.1211 1.9624-1.0226 3.9265-2.042 5.8909-3.0608 0.89732-0.46893 0.89732-0.46893 1.8128-0.94734 4.005-2.0719 8.0564-3.8926 12.215-5.6269-0.23598-0.49589-0.47196-0.99177-0.71509-1.5027-12.569-26.622-18.837-52.188-22.285-81.497h-61zm78 0c0 27.434 8.8017 51.793 21 76 6.6234-1.7446 13.165-3.6599 19.686-5.7529 23.618-7.5316 47.729-13.05 72.314-16.247 1.0912-0.14953 2.1824-0.29906 3.3066-0.45312 37.816-4.999 77.924-4.9017 115.69 0.45312 1.8807 0.26539 1.8807 0.26539 3.7993 0.53613 26.808 3.9103 52.573 10.268 78.323 18.552 3.2764 1.0386 6.5639 2 9.8774 2.9121 3.609-5.4367 6.5064-10.911 9-16.938 0.34249-0.82411 0.68498-1.6482 1.0378-2.4973 7.5531-18.581 10.708-36.501 11.962-56.565h-346zm362 1c-0.21545 2.0585-0.42339 4.118-0.59424 6.1807-2.0597 24.836-8.0188 48.944-19.937 70.968-1.6214 2.6133-1.6214 2.6133-1.4688 4.8516 1.0574 0.49814 1.0574 0.49814 2.1362 1.0063 3.2488 1.5342 6.4938 3.0764 9.7388 4.6187 1.1086 0.52207 2.2172 1.0441 3.3594 1.582 6.1801 2.9446 11.994 6.0288 17.649 9.8999 2.1008 1.1615 2.1008 1.1615 4.2588 0.1731 25.008-17.23 39.343-55.401 45.35-83.686 0.48669-3.4443 0.78077-6.8503 1.0396-10.318 0.08823-1.1741 0.17646-2.3483 0.26736-3.558 0.066296-0.89674 0.13259-1.7935 0.2009-2.7174-7.9361-0.023128-15.872-0.040917-23.808-0.051812-3.6847-0.0052279-7.3694-0.012324-11.054-0.023627-3.5532-0.010832-7.1063-0.016838-10.659-0.019438-1.3584-0.0018537-2.7169-0.0054731-4.0753-0.010853-1.8965-0.0072147-3.793-0.007678-5.6895-0.0077953-1.0814-0.0022206-2.1629-0.0044412-3.2771-0.0067291-2.384-0.15557-2.384-0.15557-3.4361 1.1203zm-331 89c1.4717 4.5766 4.0663 7.8157 7.1875 11.375 0.52537 0.6036 1.0507 1.2072 1.592 1.8291 30.175 34.212 71.022 58.204 117.22 61.796 51.473 2.2322 96.399-12.357 135-47 13.726-12.396 13.726-12.396 23-28-35.518-12.036-71.549-20.183-109-23-0.68965-0.056396-1.3793-0.11279-2.0898-0.1709-56.36-4.5014-120.14 1.557-172.91 23.171zm-30.431 12.817c-2.0566 0.98995-4.1191 1.9668-6.1821 2.9431-1.3064 0.62746-2.6124 1.2557-3.918 1.8848-0.92661 0.43612-0.92661 0.43612-1.8719 0.88106-3.1978 1.5603-4.571 2.4357-6.5968 5.4744 34.688 28.636 88.579 61.059 135 60-3.2583-2.1722-6.5311-3.3341-10.188-4.625-8.6272-3.1484-16.714-7.0624-24.812-11.375-0.59522-0.31163-1.1904-0.62326-1.8037-0.94434-14.998-7.9048-28.038-18.315-40.196-30.056-0.84949-0.79793-1.699-1.5959-2.5742-2.418-7.7708-7.478-14.833-15.886-20.621-25.004-0.59555-0.85078-1.1911-1.7016-1.8047-2.5781-4.8946 0-10.026 3.6907-14.431 5.8167zm330.43-5.8167c-1.558 1.8629-3.0036 3.7321-4.4375 5.6875-25.139 33.432-57.769 57.195-97.562 70.312v1c46.905-3.1222 95.196-27.622 130.96-57.23 0.5837-0.48235 1.1674-0.9647 1.7688-1.4617 1.5068-1.2423 1.5068-1.2423 1.2742-3.3079-15.315-9.8066-15.315-9.8066-32-15z" fill="#090909"/>
 <path transform="translate(1700,476)" d="m0 0c0.6832 0.60973 1.3664 1.2195 2.0703 1.8477 13.178 12.171 20.888 29.469 22.148 47.234 0.61928 21.34-8.2116 40.04-22.629 55.418-29.007 28.001-70.7 39.272-110.25 38.648-38.373-1.0698-75.649-12.847-103.34-40.148-0.7425-0.72961-1.485-1.4592-2.25-2.2109-14.46-15.194-19.378-33.396-19.094-53.824 0.65253-17.143 9.1764-31.394 20.344-43.965 0.61488-0.69867 1.2298-1.3973 1.8633-2.1172 24.178-25.783 63.036-37.233 97.363-38.794 41.234-1.1642 83.438 8.4927 113.77 37.911zm-169.3 4.3945c-13.803 16.13-19.173 35.159-17.931 56.128 1.7817 19.396 12.91 36.99 27.552 49.422 11.849 9.0989 25.787 15.811 40.676 18.055 0.71027 0.10957 1.4205 0.21914 2.1523 0.33203 21.663 2.8554 44.579-2.4454 62.434-15.176 2.549-1.9764 4.9927-4.0257 7.4141-6.1562 0.77344-0.67805 1.5469-1.3561 2.3438-2.0547 14.411-13.473 22.171-32.884 23.031-52.445-0.97824-22.244-10.884-40.631-26.832-55.844-35.353-30.954-89.236-25.21-120.84 7.7383z" fill="#050505"/>
 <path transform="translate(1070,470)" d="m0 0c-1 3-1 3-3.5977 4.4297-6.5803 2.7449-13.184 5.2976-19.965 7.5078-0.66588 0.22349-1.3318 0.44698-2.0178 0.67725-3.816 1.1905-6.6483 1.8861-10.42 0.38525-2.1055-2.0039-2.1055-2.0039-4.1875-4.5625-13.517-15.581-32.223-23.793-52.75-25.312-23.078-1.1652-46.162 6.3186-63.645 21.555-14.063 13.495-23.013 32.164-23.885 51.676-0.30242 19.388 7.1198 38.533 20.467 52.644 12.346 12.676 29.457 21.356 47 24 0.71027 0.10957 1.4205 0.21914 2.1523 0.33203 23.228 3.0617 44.744-2.971 63.598-16.645 4.8741-3.9028 8.5575-8.687 12.25-13.688 12.3 1.939 24.107 5.9767 35 12-1.5144 4.3255-4.7604 6.2873-8.4375 8.6875-0.66032 0.4328-1.3206 0.86561-2.001 1.3115-23.529 14.991-51.697 23.212-79.562 24.001-1.2736 0.039961-2.5472 0.079922-3.8594 0.12109-41.17 0.85438-81.835-10.905-112.08-39.684-14.229-14.887-21.565-32.59-21.419-53.07 0.1766-6.7814 1.1131-12.939 3.3562-19.367 0.26684-0.83273 0.53367-1.6655 0.80859-2.5234 8.6023-24.239 30.72-40.444 52.895-51.316 51.56-24.335 125.91-21.559 170.3 16.84z" fill="#060606"/>
 <path transform="translate(1118,445)" d="m0 0h56l-4 12c-1.8954 8.3041-2.289 16.596-2.2429 25.086-0.0018984 1.1303-0.0037967 2.2607-0.0057526 3.4252-0.0036692 3.693 0.0069433 7.3859 0.018204 11.079 0.0011944 2.5935 0.0016444 5.1869 0.0013886 7.7804 0.0015584 5.4188 0.0095485 10.838 0.02327 16.256 0.015712 6.2274 0.020998 12.455 0.020264 18.682-6.1466e-4 6.0372 0.0046418 12.074 0.012792 18.112 0.0031613 2.5479 0.0051481 5.0957 0.0058937 7.6436-0.029126 18.492-0.029126 18.492 1.1669 36.936 67.207-0.88397 67.207-0.88397 124.49-32.301 3.1318-3.3656 5.3687-6.6428 7.5117-10.699 2.0847 0.62058 4.1677 1.2466 6.25 1.875 1.1602 0.34805 2.3203 0.69609 3.5156 1.0547 2.5994 0.86018 4.8207 1.8176 7.2344 3.0703-4.7168 26.868-4.7168 26.868-7.25 39.688-0.16274 0.83563-0.32549 1.6713-0.49316 2.5322-1.1357 5.6591-1.1357 5.6591-2.2568 6.7803-2.4537 0.097699-4.8792 0.12996-7.3334 0.12025-0.77673 8.5442e-4 -1.5535 0.0017088-2.3537 0.0025892-2.6226 0.0016572-5.2452-0.0038704-7.8678-0.0093183-1.872-2.8185e-4 -3.7441-1.2419e-4 -5.6161 4.4251e-4 -5.099 2.8807e-4 -10.198-0.0056102-15.297-0.012574-5.3225-0.006232-10.645-0.0068372-15.967-0.0080254-10.086-0.0031138-20.173-0.011328-30.259-0.021349-11.48-0.01116-22.96-0.016671-34.44-0.021695-23.622-0.010465-47.244-0.028066-70.866-0.050324 0.2794-0.89512 0.55879-1.7902 0.84666-2.7125 0.36398-1.1729 0.72795-2.3457 1.103-3.5542 0.3619-1.1632 0.72379-2.3265 1.0967-3.525 3.9542-13.302 3.3846-27.709 3.5787-41.458 0.036831-2.2561 0.073697-4.5122 0.1106-6.7683 0.25514-16.637 0.39039-33.275 0.43964-49.913 0.0081011-2.5626 0.019151-5.1252 0.033325-7.6877 0.093101-18.724-0.17213-35.789-7.2086-53.38z" fill="#030303"/>
 <path transform="translate(1360,445)" d="m0 0h55c-0.99 3.3-1.98 6.6-3 10-3.6513 15.364-3.1626 31.234-3.168 46.914-0.0032214 2.2228-0.006586 4.4455-0.010086 6.6683-0.0059612 4.6446-0.007843 9.2892-0.0072479 13.934 1.0136e-4 5.8999-0.013539 11.8-0.030772 17.7-0.011216 4.5885-0.013144 9.1769-0.012618 13.765-0.0011662 2.1725-0.0055096 4.345-0.013332 6.5175-0.22813 25.14-0.22813 25.14 5.242 49.502l1 4h-55l4-16c0.62768-4.3938 1.1258-8.0768 1.1404-12.404 0.0057102-1.0214 0.01142-2.0429 0.017303-3.0953 0.0011179-1.0998 0.0022357-2.1997 0.0033874-3.3328 0.0074474-1.7625 0.0074474-1.7625 0.015045-3.5606 0.014575-3.8783 0.021417-7.7566 0.026947-11.635 0.0027391-1.3441 0.0055957-2.6881 0.0085678-4.0322 0.01366-6.3218 0.023332-12.644 0.027202-18.965 0.0044667-7.2535 0.021956-14.507 0.051001-21.76 0.021763-5.6343 0.031712-11.269 0.033041-16.903 0.0010384-3.3518 0.0082288-6.7032 0.02482-10.055 0.076467-16.641-0.76399-31.214-5.3478-47.257z" fill="#040404"/>
 <path transform="translate(969,325)" d="m0 0h32c-0.99 1.65-1.98 3.3-3 5-1.947 7.788-1.5991 15.982-2 24h47c0.18242-17.353 0.18242-17.353-4-26l-1-3h32l-4 8c-0.57161 2.8554-0.57161 2.8554-0.48584 5.6023-0.0061533 1.0243-0.012307 2.0487-0.018646 3.104 0.014371 1.0805 0.028742 2.1609 0.043549 3.2741 9.1644e-4 1.131 0.0018329 2.262 0.0027771 3.4273 0.0060175 2.3793 0.021707 4.7587 0.046539 7.1379 0.036609 3.6407 0.041018 7.2803 0.040527 10.921 0.0098284 2.3171 0.021484 4.6341 0.035156 6.9512 0.0022256 1.0865 0.0044513 2.1731 0.0067444 3.2925 0.01276 1.0149 0.025519 2.0298 0.038666 3.0754 0.0076236 0.88854 0.015247 1.7771 0.023102 2.6926 0.45655 4.3048 2.3434 7.6736 4.2674 11.522h-32l2-4c2.7581-8.6775 2.7581-8.6775 3-25h-47c-0.43674 18.131-0.43674 18.131 4 26l1 3h-32l2-4c2.4373-5.638 2.3062-11.022 2.3008-17.059 0.0042851-1.0625 0.0085702-2.125 0.012985-3.2197 0.0057295-2.2416 0.0062537-4.4832 0.0019074-6.7248-0.0031598-3.4192 0.020317-6.8375 0.045654-10.257 0.0022732-2.1829 0.0029764-4.3659 0.0019531-6.5488 0.0092098-1.0169 0.018419-2.0337 0.027908-3.0814-0.037986-5.8614-0.70301-9.8935-3.3912-15.11l-1-3z" fill="#080808"/>
 <path transform="translate(1086,325)" d="m0 0h86c4 14 4 14 3 19-3.0625 1.8125-3.0625 1.8125-6 3l-2.25-1.75c-11.796-7.827-27.271-8.5214-40.938-8.875-1.2381-0.038672-2.4763-0.077344-3.752-0.11719-3.02-0.093281-6.0402-0.17659-9.0605-0.25781v18h40v11h-40v18c29.243 0.37646 29.243 0.37646 55-11 3.4417 0.35299 5.0687 1.0458 8 3-0.64012 6.7853-2.1457 12.201-4 19h-86c1.0039-2.0079 2.0089-4.0163 3.0867-5.9856 3.4557-7.6217 2.0996-17.902 2.0986-26.154 0.0021828-2.1588 0.020394-4.3171 0.039307-6.4758 0.18945-15.848 0.18945-15.848-5.2246-30.385z" fill="#090909"/>
 <path transform="translate(944,673)" d="m0 0h16c0.52956 1.5965 0.52956 1.5965 1.0698 3.2253 1.3142 3.9608 2.6304 7.9209 3.9473 11.881 0.5689 1.7117 1.1373 3.4236 1.7051 5.1357 0.81774 2.4654 1.6374 4.9301 2.4575 7.3948 0.25216 0.76165 0.50433 1.5233 0.76413 2.308 0.2401 0.72037 0.4802 1.4407 0.72757 2.1829 0.20874 0.62843 0.41747 1.2569 0.63254 1.9043 0.83046 2.3479 1.7711 4.6556 2.6961 6.968l13-41h17c1.3702 4.2315 2.7397 8.4631 4.1077 12.695 0.46414 1.4353 0.92865 2.8706 1.3936 4.3057 2.5833 7.975 5.1458 15.952 7.4988 23.999 0.35304-1.0644 0.70608-2.1287 1.0698-3.2253 1.3142-3.9608 2.6304-7.9209 3.9473-11.881 0.5689-1.7117 1.1373-3.4236 1.7051-5.1357 0.81774-2.4654 1.6374-4.9301 2.4575-7.3948 0.37824-1.1425 0.37824-1.1425 0.76413-2.308 0.2401-0.72037 0.4802-1.4407 0.72757-2.1829 0.20874-0.62843 0.41747-1.2569 0.63254-1.9043 0.83046-2.3479 1.7711-4.6556 2.6961-6.968h16c-1.5062 7.6121-3.8301 14.797-6.3516 22.129-0.62834 1.8454-0.62834 1.8454-1.2694 3.728-1.1038 3.2416-2.2133 6.4813-3.3241 9.7205-1.1364 3.3174-2.2673 6.6367-3.3987 9.9557-2.2135 6.4907-4.4334 12.979-6.6562 19.467h-16c-3.6761-8.7092-6.4763-17.601-9.25-26.625-0.46317-1.4962-0.92671-2.9923-1.3906-4.4883-1.1241-3.6276-2.2431-7.2567-3.3594-10.887-3.6299 8.5047-6.4094 17.255-9.1875 26.062-0.67411 2.1344-1.3493 4.2684-2.0284 6.4012-0.60838 1.911-1.2124 3.8233-1.8161 5.7357-0.96802 2.8005-0.96802 2.8005-1.968 3.8005-2.6965 0.073196-5.3669 0.092425-8.0625 0.0625-0.75861-0.0045117-1.5172-0.0090234-2.2988-0.013672-1.8796-0.011821-3.7591-0.029757-5.6387-0.048828-2.7434-8.0302-5.4819-16.062-8.2142-24.096-1.2688-3.7303-2.5393-7.46-3.8137-11.188-1.2294-3.5972-2.4544-7.1959-3.6763-10.796-0.46729-1.3741-0.93619-2.7476-1.4067-4.1206-0.65802-1.921-1.3098-3.8441-1.9614-5.7674-0.37306-1.0948-0.74613-2.1895-1.1305-3.3175-0.79724-2.7145-0.79724-2.7145-0.79724-5.7145z" fill="#0C0C0C"/>
 <path transform="translate(1238,673)" d="m0 0c5.8575-0.061875 11.715-0.12375 17.75-0.1875 2.7336-0.040968 2.7336-0.040968 5.5225-0.082764 12.753-0.11173 25.448 0.44573 35.22 9.6804 6.871 7.6232 7.8293 16.444 7.7188 26.238-0.52851 8.3974-3.2465 15.334-9.2109 21.352-8.8477 6.9404-18.616 8.1732-29.559 8.0977-1.051-0.0015106-1.051-0.0015106-2.1232-0.0030518-2.5853-0.0051814-5.1705-0.019142-7.7557-0.032104l-17.562-0.0625v-65zm15 13v39c15.271 1.0974 15.271 1.0974 28.898-4.6875 5.2371-5.901 5.6121-10.717 5.4453-18.523-0.4559-5.0252-1.7207-8.2704-5.3438-11.789-8.9892-5.8055-18.223-4-29-4z" fill="#0B0B0B"/>
 <path transform="translate(1155,673)" d="m0 0c9.0956-0.092812 9.0956-0.092812 18.375-0.1875 1.8928-0.027312 3.7857-0.054624 5.7358-0.082764 20.309-0.17317 20.309-0.17317 27.389 6.0828 4.2805 4.9455 4.9774 10.222 4.8047 16.594-0.61158 5.2063-2.1137 9.753-6.2109 13.195-1.9906 1.2701-3.9713 2.3662-6.0938 3.3984-0.7425 0.37254-1.485 0.74508-2.25 1.1289-0.5775 0.28746-1.155 0.57492-1.75 0.87109 0.56848 0.55688 1.137 1.1138 1.7227 1.6875 4.9876 4.9293 9.7468 9.9613 14.277 15.312 0.50918 0.59297 1.0184 1.1859 1.543 1.7969 3.457 4.0671 3.457 4.0671 3.457 5.2031-16.748 1.0541-16.748 1.0541-21.504-1.1719-1.799-1.8207-3.1034-3.6799-4.4961-5.8281-1.5299-1.8639-3.0724-3.7175-4.625-5.5625-1.9935-2.4522-3.9762-4.8948-5.8477-7.4414-3.1693-4.2292-3.6992-4.0247-9.5273-4.9961v25h-15v-65zm15 12v17c3.9909 0.092812 3.9909 0.092812 8.0625 0.1875 0.82379 0.027312 1.6476 0.054624 2.4963 0.082764 5.2264 0.058203 8.819-0.78788 13.441-3.2703 1.5459-3.0917 1.2936-5.5943 1-9-2.2186-2.9072-3.5194-3.8398-7-5-1.4082-0.08022-2.82-0.10766-4.2305-0.097656-1.2037 0.004834-1.2037 0.004834-2.4316 0.0097656-1.2501 0.012568-1.2501 0.012568-2.5254 0.025391-1.2675 0.0067676-1.2675 0.0067676-2.5605 0.013672-2.084 0.011774-4.168 0.029709-6.252 0.048828z" fill="#0C0C0C"/>
 <path transform="translate(1375,677)" d="m0 0c2.375 2.5 2.375 2.5 4 5l1.25 1.875c0.75 2.125 0.75 2.125 0.75 9.125h-16c-0.99-2.31-1.98-4.62-3-7-4.0598-2.7463-9.2529-2.5746-14-2-3.4535 1.3475-3.4535 1.3475-6 3-0.41781 2.3731-0.41781 2.3731 0 5 3.4541 2.5164 6.7667 3.6371 10.895 4.6133 1.1208 0.27908 2.2417 0.55816 3.3965 0.8457 2.3339 0.56568 4.6699 1.1231 7.0078 1.6719 7.3695 1.854 14.677 3.9934 18.901 10.804 2.4666 5.191 2.1516 10.584 0.7998 16.065-3.5506 6.8477-8.2419 10.062-15.389 12.361-4.6205 1.1317-9.1854 1.1708-13.923 1.1394-1.0131-0.0064453-2.0262-0.012891-3.0701-0.019531-8.6437-0.21107-16.225-1.0877-22.625-7.4883-4.3519-5.4854-4.9922-8.688-4.9922-15.992h16c0.99 2.31 1.98 4.62 3 7 2.9052 3.3522 6.3798 3.6613 10.617 4.0039 4.5232-0.0074151 8.5751-0.85353 12.445-3.3164 1.148-1.7302 1.148-1.7302 0.875-4.1875-1.1491-3.0642-2.1927-3.772-4.9375-5.5-2.5571-0.86501-2.5571-0.86501-5.3594-1.4297-1.0338-0.23848-2.0677-0.47695-3.1328-0.72266-2.1553-0.4781-4.3116-0.95213-6.4688-1.4219-7.7616-1.8008-13.663-4.2229-19.477-9.7383-2.5144-4.3248-2.9706-8.1531-2.1914-12.992 1.6121-5.9477 4.4126-9.4573 9.6289-12.695 12.399-6.2117 29.353-5.8456 41 2z" fill="#0B0B0B"/>
 <path transform="translate(862,325)" d="m0 0h85c3.375 9 3.375 9 4.1875 13.5 0.15855 0.85594 0.31711 1.7119 0.48047 2.5938 0.16436 0.94359 0.16436 0.94359 0.33203 1.9062-2.375 1.8125-2.375 1.8125-6 3-2.4802-0.93007-4.6413-2.2135-6.9453-3.5195-3.6913-1.789-7.3287-2.7786-11.305-3.7305-0.67337-0.1625-1.3467-0.325-2.0405-0.49243-3.8836-0.90586-7.775-1.6173-11.709-2.2576 0.23912 6.0103 0.48774 12.02 0.74463 18.03 0.085854 2.0383 0.16925 4.0767 0.25 6.1152 0.45427 11.424 1.1209 22.564 3.0054 33.855h-26c0.30938-3.2588 0.61875-6.5175 0.9375-9.875 1.4204-16.009 1.7105-32.064 2.0625-48.125-9.6089 1.9111-18.702 3.8305-27.617 8.0469-2.3828 0.95312-2.3828 0.95312-6.3828 0.95312l-3-2c0.60625-6.5475 2.0392-11.464 4-18z" fill="#080808"/>
 <path transform="translate(1084,673)" d="m0 0h22c4.4996 8.9992 4.4996 8.9992 5.9194 12.45 0.48103 1.1626 0.48103 1.1626 0.97177 2.3487 0.33239 0.81162 0.66477 1.6232 1.0072 2.4594 0.53616 1.2983 0.53616 1.2983 1.0832 2.6228 1.1339 2.747 2.2639 5.4956 3.3934 8.2444 1.4856 3.6073 2.9731 7.2139 4.4609 10.82 0.35689 0.867 0.71378 1.734 1.0815 2.6273 2.6137 6.3359 5.311 12.631 8.0733 18.904 1.0093 2.5239 1.0093 2.5239 1.0093 4.5239h-17c-5-11.75-5-11.75-5-14l-31 1-5 12c-1 1-1 1-4.5977 1.0977-1.4883-0.006674-2.9766-0.018634-4.4648-0.035156-0.75861-0.0045117-1.5172-0.0090234-2.2988-0.013672-1.8796-0.011821-3.7591-0.029757-5.6387-0.048828 1.8539-6.6122 4.0636-12.904 6.8008-19.199 0.35886-0.83812 0.71772-1.6762 1.0874-2.5397 1.1364-2.6517 2.2799-5.3003 3.4243-7.9485 1.4987-3.482 2.9943-6.9652 4.4883-10.449 0.35998-0.83844 0.71996-1.6769 1.0909-2.5407 3.163-7.393 6.1584-14.842 9.1084-22.323zm11 13c-6.7719 12.559-6.7719 12.559-10 26h21c-4.8656-13.052-4.8656-13.052-10-26h-1z" fill="#0C0C0C"/>
 <path transform="translate(887.13 672.89)" d="m0 0c0.91644 0.0052368 1.8329 0.010474 2.7771 0.015869 1.484 0.004834 1.484 0.004834 2.998 0.0097656 1.0409 0.0083789 2.0818 0.016758 3.1543 0.025391 1.5672 0.0067676 1.5672 0.0067676 3.166 0.013672 2.5906 0.011829 5.181 0.028311 7.7715 0.048828 2.5779 6.2398 5.1556 12.48 7.7332 18.719 0.87366 2.1149 1.7474 4.2298 2.6211 6.3447 0.42128 1.0197 0.84256 2.0395 1.2766 3.0901 0.41914 1.0145 0.83827 2.0289 1.2701 3.0741 0.83726 2.0273 1.674 4.0548 2.5103 6.0825 1.9149 4.6425 3.8345 9.2829 5.7718 13.916 0.32979 0.79177 0.65959 1.5835 0.99937 2.3993 0.60859 1.4605 1.2199 2.92 1.8344 4.378 1.9831 4.7707 1.9831 4.7707 1.9831 6.9956h-16c-2.1966-4.3199-4.1962-8.4905-6-13l-31-1-3 9-2 5h-17c2.0646-6.432 4.4221-12.644 7.0547-18.863 0.38343-0.91324 0.76685-1.8265 1.1619-2.7674 1.2164-2.8953 2.4373-5.7886 3.6584-8.6818 0.81151-1.9289 1.6227-3.8579 2.4336-5.7871 1.1746-2.7942 2.3498-5.5882 3.5275-8.3811 1.6162-3.8329 3.2297-7.6664 4.8133-11.513 0.44827-1.0888 0.89654-2.1775 1.3584-3.2993 0.37012-0.90645 0.74024-1.8129 1.1216-2.7468 1.3013-2.9299 1.3013-2.9299 4.0037-3.0737zm7.8669 12.114c-1.4263 3.6837-2.8504 7.3682-4.2725 11.053-0.48442 1.2545-0.96945 2.5087-1.4551 3.7627-0.69655 1.799-1.3908 3.5988-2.085 5.3987-0.62842 1.626-0.62842 1.626-1.2695 3.2849-0.97541 2.2128-0.97541 2.2128-0.91797 3.5002h21c-1.9847-6.6157-4.0084-12.816-6.6875-19.125-0.32033-0.7657-0.64066-1.5314-0.9707-2.3203-0.77613-1.8534-1.5583-3.7043-2.3418-5.5547h-1z" fill="#0C0C0C"/>
</svg>
