<svg enable-background="new 0 0 1014 136.05099" height="136.05099" viewBox="0 0 1014 136.05099" width="1014" xmlns="http://www.w3.org/2000/svg"><g fill="#ffffff"><path d="m334.18701 62.521v28.146h20.728l.655.655c-.655 4.364-2.39999 8.291-5.89099 11.346-4.582 4.146-11.34601 5.673-17.45499 3.709-9.819-3.055-13.96399-13.528-15.05499-22.692-.87299-11.564-1.30899-23.346 1.30899-34.474 1.745-5.673 2.836-11.346 8.073-15.491 4.79999-3.709 12.655-3.709 17.892-.655 6.54599 4.146 8.94601 11.564 9.819 18.546l37.965-3.273c-1.091-6.109-2.61801-12.219-5.237-17.892-6.98199-16.801-24.655-29.019-42.547-30.11-20.728-1.746-40.36499 3.055-53.67499 19.855-18.11002 22.474-20.073 58.257-9.38199 84.658 6.54599 15.055 21.819 28.80099 37.965 31.41901 17.237 3.709 36.21899 1.091 48.22-12.437l.655.436c2.18201 3.709 3.70901 7.637 4.79999 11.78201h20.29199v-73.74602z"/><path d="m519.86603 43.757c0-26.619-18.76401-41.892-49.09299-41.892h-63.27499v134.187h39.056v-51.057h12.21899l18.76401 51.05599h42.98297l-22.91-58.257c12.00097-5.23599 22.25601-16.36399 22.25601-34.03699zm-57.60202 12.873h-15.92801l-.21799-25.528h15.92801c7.85501 0 16.582 3.273 16.582 12.655.43698 9.6-7.20001 12.873-16.36401 12.873z"/><path d="m739.14697 2.083h-35.12903c-22.90997 44.511-23.78302 44.074-23.78302 44.074-7.85498-14.401-14.83698-29.674-22.69202-44.074h-124.80389v133.969l97.31299.218v-31.856l-58.47498.218v-22.255h46.69299l-.21801-29.892h-46.474v-18.983h58.25702l27.492 46.03799-.21802 56.729h39.711v-56.72899z"/></g></svg>